<svg xmlns="http://www.w3.org/2000/svg" xmlns:xlink="http://www.w3.org/1999/xlink" width="56.033" height="56.031" viewBox="0 0 56.033 56.031">
  <defs>
    <linearGradient id="linear-gradient" x1="0.972" y1="0.017" x2="0.084" y2="0.829" gradientUnits="objectBoundingBox">
      <stop offset="0" stop-color="#a8775e"/>
      <stop offset="0.296" stop-color="#b59585"/>
      <stop offset="0.536" stop-color="#d9b39b"/>
      <stop offset="0.697" stop-color="#e5b69b"/>
      <stop offset="1" stop-color="#c98f70"/>
    </linearGradient>
  </defs>
  <g id="salon-removebg-preview" transform="translate(-0.209 499.594)">
    <path id="Path_13" data-name="Path 13" d="M53-499.482a3.047,3.047,0,0,0-.561.258c-4.084,3.22-12.645,10.255-18.951,15.6-1.773,1.5-3.265,2.726-3.31,2.726s-3.826-3.736-8.393-8.292c-9.346-9.335-8.819-8.886-10.547-8.965a3.59,3.59,0,0,0-1.683.2c-.628.236-.931.5-4.97,4.533-2.356,2.345-4.32,4.387-4.353,4.533-.157.583.583,1.066,1.167.763.168-.09,1.492-1.358,2.94-2.8l2.637-2.648.583.583.595.595L5.4-489.653c-2.917,2.928-3.1,3.175-2.67,3.669a1.192,1.192,0,0,0,.516.325c.3.067.5-.112,3.175-2.771l2.85-2.839.617.606.617.606-2.8,2.816c-2.278,2.289-2.8,2.872-2.8,3.119a.787.787,0,0,0,.808.752c.325,0,.662-.3,3.142-2.771l2.783-2.771.561.55a2.823,2.823,0,0,1,.561.673c0,.056-1.234,1.346-2.749,2.861-2.266,2.255-2.749,2.805-2.749,3.052a.782.782,0,0,0,.808.763c.325,0,.662-.3,3.142-2.771l2.783-2.783.583.595.595.583-2.783,2.783c-2.6,2.614-2.771,2.805-2.771,3.186a.606.606,0,0,0,.247.583c.561.393.662.325,3.568-2.569,1.515-1.515,2.805-2.749,2.872-2.749a3.139,3.139,0,0,1,.662.561l.561.561-2.783,2.783c-2.48,2.48-2.771,2.816-2.771,3.142a.787.787,0,0,0,.752.808c.247,0,.83-.527,3.119-2.8l2.816-2.805.606.617.606.617-2.827,2.839a23.437,23.437,0,0,0-2.827,3.063.818.818,0,0,0,1.212.673c.168-.09,1.492-1.358,2.94-2.805L21-479.555l.583.583.595.583-2.738,2.76a40.861,40.861,0,0,0-2.805,2.985.877.877,0,0,0,.864,1.055c.067,0,1.4-1.279,2.962-2.827l2.839-2.839.64.64a3.893,3.893,0,0,1,.595.684c-.5.382-7.327,6.418-8.942,7.91-1.369,1.257-1.4,1.369-.707,2.4a5.546,5.546,0,0,1,.258,5.644,31.978,31.978,0,0,1-4.522,4.656A5.9,5.9,0,0,1,5-455.107a5.452,5.452,0,0,1-3.153-5.049,5.4,5.4,0,0,1,1.694-4.151,5.735,5.735,0,0,1,8.1-.022c.875.819,1.268.92,1.672.4.314-.4.224-.741-.37-1.358a7.193,7.193,0,0,0-5.408-2.289,6.693,6.693,0,0,0-5.06,2.1,6.837,6.837,0,0,0-2.222,5.161,6.356,6.356,0,0,0,.718,3.254,7.048,7.048,0,0,0,3.422,3.422,9.489,9.489,0,0,0,1.515.572,9.9,9.9,0,0,0,3.355,0,1.41,1.41,0,0,1,.527-.09,2.336,2.336,0,0,1-.123.763,7.42,7.42,0,0,0,2.682,7.248,6.979,6.979,0,0,0,4.555,1.537,6.787,6.787,0,0,0,5.217-2.222,6.791,6.791,0,0,0,2.1-5.116,7.182,7.182,0,0,0-1.593-4.589c-.471-.595-.471-.595-.247-.83.819-.909,6.912-7.809,8.381-9.481.987-1.122,1.818-2.042,1.851-2.042a5.536,5.536,0,0,1,.673.617l.606.617-2.827,2.839c-1.56,1.56-2.827,2.895-2.827,2.962a.877.877,0,0,0,1.055.864,40.857,40.857,0,0,0,2.985-2.8l2.76-2.738.583.595.583.583-2.648,2.637c-1.447,1.447-2.715,2.771-2.805,2.94a.818.818,0,0,0,.673,1.212,23.436,23.436,0,0,0,3.063-2.827l2.839-2.827.617.606.617.606-2.805,2.816c-2.278,2.289-2.805,2.872-2.805,3.119a.787.787,0,0,0,.808.752c.325,0,.662-.292,3.142-2.771l2.783-2.783.561.561a3.138,3.138,0,0,1,.561.662c0,.067-1.234,1.358-2.749,2.872-2.895,2.906-2.962,3.007-2.569,3.568a.607.607,0,0,0,.583.247c.381,0,.572-.168,3.186-2.771l2.783-2.783.583.595.595.583-2.783,2.783c-2.468,2.48-2.771,2.816-2.771,3.142a.781.781,0,0,0,.763.808c.247,0,.8-.482,3.052-2.749,1.515-1.515,2.805-2.749,2.861-2.749a2.823,2.823,0,0,1,.673.561l.55.561L42.788-452.2c-2.468,2.48-2.771,2.816-2.771,3.142a.787.787,0,0,0,.752.808c.247,0,.83-.527,3.119-2.8l2.816-2.8.606.617.606.617-2.839,2.85c-2.659,2.67-2.839,2.872-2.771,3.175a1.192,1.192,0,0,0,.325.516c.494.426.741.247,3.669-2.67l2.749-2.749.595.595.583.583-2.648,2.637c-1.447,1.447-2.715,2.771-2.805,2.94-.3.583.18,1.324.763,1.167.146-.034,2.188-2,4.533-4.353,4.017-4.028,4.3-4.342,4.522-4.959a5.249,5.249,0,0,0,.168-2.491c-.258-1.055-.449-1.268-8.931-9.773-5.172-5.172-8.292-8.37-8.247-8.471.022-.079,1.111-1.38,2.4-2.895,5.947-6.99,15.45-18.569,16.011-19.523a2.54,2.54,0,0,0-.426-2.783A2.624,2.624,0,0,0,53-499.482Zm-16.011,18c-8.83,8.83-16.089,16.168-16.146,16.314a.761.761,0,0,0,.976.976c.146-.056,7.484-7.327,16.314-16.157S54.2-496.385,54.221-496.363a4.268,4.268,0,0,1-.539.774c-5.891,7.349-14.721,17.9-21.733,25.963-3.287,3.781-8.437,9.582-8.729,9.851-.213.191-.236.18-.752-.269a2.986,2.986,0,0,1-1.021-1.672c-.123-.64-.348-.9-.763-.9s-.561.079-.741.426c-.337.64.426,2.39,1.425,3.276l.617.55-.864,1c-1.077,1.268-1.088,1.358-.146,2.379a5.773,5.773,0,0,1,1.649,4.039,5.743,5.743,0,0,1-4.185,5.554,7.556,7.556,0,0,1-3.007.056,6.171,6.171,0,0,1-3.546-2.7,5.908,5.908,0,0,1,.146-6.036,28.035,28.035,0,0,1,2.154-2.356,19.882,19.882,0,0,0,2.132-2.39,7.017,7.017,0,0,0,1.01-3.456,6.342,6.342,0,0,0-.7-3.422l-.37-.785.741-.684c2.311-2.132,10.154-8.976,15.944-13.9,7.069-6.036,19.938-16.617,20.05-16.5C53.021-497.563,45.806-490.315,36.988-481.485ZM12.135-496.374c.583.269,16.875,16.538,16.718,16.7-.415.393-3.018,2.592-3.074,2.592-.034,0-4.028-3.961-8.875-8.808L8.1-494.714,9-495.6c.729-.7,1.021-.9,1.4-.987A2.521,2.521,0,0,1,12.135-496.374ZM44.7-464.049c4.51,4.522,8.258,8.336,8.325,8.46a2.909,2.909,0,0,1,.213,1.773c-.1.471-.247.684-1,1.459l-.875.909-8.819-8.808c-4.847-4.847-8.808-8.853-8.808-8.9a37.538,37.538,0,0,1,2.682-3.108C36.449-472.262,40.174-468.56,44.7-464.049Z" fill="url(#linear-gradient)"/>
    <path id="Path_14" data-name="Path 14" d="M115.346-101.692A4.106,4.106,0,0,0,112.8-99.3a4.294,4.294,0,0,0,.034,3.063,4.13,4.13,0,0,0,4.4,2.435,4.127,4.127,0,0,0,3.086-2.334,3.191,3.191,0,0,0,.292-1.694,3.019,3.019,0,0,0-.325-1.705,4.3,4.3,0,0,0-1.941-1.952A4.566,4.566,0,0,0,115.346-101.692Zm2.233,1.6a2.447,2.447,0,0,1,.18,4.409,2.4,2.4,0,0,1-3.6-2.143A2.445,2.445,0,0,1,117.579-100.087Z" transform="translate(-99.722 -353.112)" fill="url(#linear-gradient)"/>
    <path id="Path_15" data-name="Path 15" d="M32.666-184.67a4.345,4.345,0,0,0-2.637,2.558,4.868,4.868,0,0,0,.079,2.827,3.472,3.472,0,0,0,.931,1.358,3.634,3.634,0,0,0,2.872,1.189,3.848,3.848,0,0,0,3.613-2.244,2.988,2.988,0,0,0,.37-1.818,3.139,3.139,0,0,0-.3-1.705,4.317,4.317,0,0,0-1.975-1.975A4.843,4.843,0,0,0,32.666-184.67Zm2.2,1.616a2.45,2.45,0,0,1,.774,4.006,2.175,2.175,0,0,1-1.952.7,2.366,2.366,0,0,1-1.874-1.122,1.768,1.768,0,0,1-.314-1.268,1.955,1.955,0,0,1,.337-1.346A2.45,2.45,0,0,1,34.865-183.054Z" transform="translate(-26.32 -279.458)" fill="url(#linear-gradient)"/>
  </g>
</svg>
