<svg xmlns="http://www.w3.org/2000/svg" xmlns:xlink="http://www.w3.org/1999/xlink" width="66.159" height="56.916" viewBox="0 0 66.159 56.916">
  <defs>
    <linearGradient id="linear-gradient" x1="1.035" y1="0.073" x2="-1.294" y2="0.879" gradientUnits="objectBoundingBox">
      <stop offset="0" stop-color="#a35d44"/>
      <stop offset="0.181" stop-color="#d2a48d"/>
      <stop offset="0.523" stop-color="#e0b6a0"/>
      <stop offset="0.829" stop-color="#f0d1bd"/>
      <stop offset="1" stop-color="#c1947d"/>
    </linearGradient>
  </defs>
  <g id="spa__1_-removebg-preview" transform="translate(-0.411 464.929)">
    <path id="Path_16" data-name="Path 16" d="M299.623-464.515a68.091,68.091,0,0,0-3.416,7.189,4.806,4.806,0,0,0-.384,2.317,4.272,4.272,0,0,0,3.257,3.959c.516.146.556.185.556.609v.463h-6.686c-6.461,0-6.686.013-6.818.252a12.417,12.417,0,0,0-.132,2.251c0,1.827.026,2.026.265,2.264.212.212.331.238.53.132.238-.132.265-.278.265-1.986v-1.853H290.5v1.033c0,1.165.172,1.536.675,1.456.3-.04.318-.079.357-1.271l.04-1.218h13.094v2.793c0,2.846.066,3.3.5,3.3.516,0,.556-.225.556-3.2v-2.886h7.546v33.23l-3.588.026c-3.257.04-3.614.066-3.747.265a.377.377,0,0,0,0,.463c.132.212.5.238,4.091.278a20.655,20.655,0,0,0,4.117-.119c.252-.212.278-34.793.026-35.044-.119-.119-1.814-.159-6.818-.159H300.7v-.45c0-.437.026-.463.7-.662a4.275,4.275,0,0,0,3.019-5.388,43.678,43.678,0,0,0-3.681-7.97C300.351-465.071,299.994-465.084,299.623-464.515Zm1.787,3.575a26.856,26.856,0,0,1,2.026,4.9,2.157,2.157,0,0,1-.013,1.6,3.243,3.243,0,0,1-.755,1.35,3.88,3.88,0,0,1-1.814,1.125c-.119,0-.159-.609-.159-2.237a23.412,23.412,0,0,0-.079-2.449c-.093-.252-.6-.278-.821-.053a7.93,7.93,0,0,0-.159,2.449c0,1.748-.04,2.29-.159,2.29a3.766,3.766,0,0,1-1.721-1.006c-1.006-1.059-1.192-2.29-.569-4.025a56.07,56.07,0,0,1,3.005-6.222A15.714,15.714,0,0,1,301.41-460.94Z" transform="translate(-247.779)" fill="url(#linear-gradient)"/>
    <path id="Path_17" data-name="Path 17" d="M145.665-432.527a3.7,3.7,0,0,0-.635,4.091c.185.4.463.927.609,1.178a3.168,3.168,0,0,1,.146,2.158,5.045,5.045,0,0,1-.662.94c-.45.516-.516.675-.41.887.225.4.688.3,1.218-.252a3.627,3.627,0,0,0,.371-4.779,5.216,5.216,0,0,1-.609-1.364,2.642,2.642,0,0,1,.688-2.079c.477-.543.543-.794.291-1.046S146.115-432.977,145.665-432.527Z" transform="translate(-125.158 -27.751)" fill="url(#linear-gradient)"/>
    <path id="Path_18" data-name="Path 18" d="M109.6-417.527a2.68,2.68,0,0,0,.013,3.27c.7,1.006.662,1.456-.2,2.648a.43.43,0,0,0,.41.635c.516,0,1.337-1.284,1.337-2.092a3.236,3.236,0,0,0-.688-1.8,1.637,1.637,0,0,1-.093-1.946c.357-.516.291-.966-.159-1.019A.624.624,0,0,0,109.6-417.527Z" transform="translate(-94.255 -40.858)" fill="url(#linear-gradient)"/>
    <path id="Path_19" data-name="Path 19" d="M182.6-417.527a2.68,2.68,0,0,0,.013,3.27c.622.887.662,1.6.146,2.211-.41.5-.384.993.053,1.046.7.106,1.443-1.192,1.311-2.29a3.744,3.744,0,0,0-.543-1.377c-.569-.927-.635-1.628-.2-2.184.371-.463.291-.927-.159-.98A.624.624,0,0,0,182.6-417.527Z" transform="translate(-157.591 -40.858)" fill="url(#linear-gradient)"/>
    <path id="Path_20" data-name="Path 20" d="M17.2-331.691a15.506,15.506,0,0,0-6.884,2.476c-1.853,1.47-1.893,3.508-.093,4.991a2.647,2.647,0,0,1,.6.569,4.36,4.36,0,0,1-.966.437c-3.35,1.258-5.216,3.469-4.74,5.613a5.414,5.414,0,0,0,2.039,2.767,4.258,4.258,0,0,1,.741.6,7.1,7.1,0,0,1-1.284.556c-2.807,1.086-4.991,2.741-5.8,4.4a4.036,4.036,0,0,0-.026,3.429c1.39,2.966,6.09,5.282,12.882,6.342a62.778,62.778,0,0,0,12.22.053c2.039-.291,2.4-.477,1.959-1.072-.172-.238-.225-.238-2.079.013a67.473,67.473,0,0,1-10.843.079c-10.34-1.284-15.927-5.613-12.352-9.572A13.3,13.3,0,0,1,7.877-313.1l1.337-.463,1.761.583a28.524,28.524,0,0,0,10.34,1.364c2.515-.04,2.86-.013,2.793.159a6.06,6.06,0,0,0-.41,2.648c.225,3.323,2.886,5.9,6.99,6.8l.344.079.066,1.748a8.913,8.913,0,0,0,1.231,4.621,6.218,6.218,0,0,0,8.394,2.237c2.039-1.1,3.323-2.555,4.74-5.4a5.351,5.351,0,0,1,.993.424,11.285,11.285,0,0,0,4.276,1.1,6.487,6.487,0,0,0,3.786-.715,6.041,6.041,0,0,0,3.376-6.064,9.555,9.555,0,0,0-2.145-5.177,5.646,5.646,0,0,1-.583-.781,5.267,5.267,0,0,1,.569-.768c2.184-2.688,2.78-6.143,1.483-8.7a6.6,6.6,0,0,0-4.21-3.138,10.012,10.012,0,0,0-5,.357,12.617,12.617,0,0,0-1.695.688c-.516.318-.437.384-1.192-.953a10.731,10.731,0,0,0-4.17-4.025A6.019,6.019,0,0,0,33.64-325.3a7.261,7.261,0,0,0-1.178,1.576,2.225,2.225,0,0,1-.45.715c-.04-.026-.384-.159-.741-.291a6.986,6.986,0,0,1-.715-.3c-.04-.026.252-.331.635-.662,1.655-1.443,1.761-3.071.278-4.554-1.35-1.364-4.3-2.5-7.48-2.886A44.728,44.728,0,0,0,17.2-331.691Zm7.52,1.178a15.99,15.99,0,0,1,4.66,1.4,4.532,4.532,0,0,1,2.039,1.946c.437,1.787-2.132,3.455-6.567,4.276a35.022,35.022,0,0,1-8.407-.013c-3.257-.583-5.706-1.748-6.368-3.019-.94-1.8,1.377-3.575,5.825-4.475A24.64,24.64,0,0,1,24.717-330.512Zm14.709,4.568a8.317,8.317,0,0,1,4.951,4.342l.5.913-.583.463a11.768,11.768,0,0,0-3.614,5.031,5.912,5.912,0,0,0-.4,2.674,5.265,5.265,0,0,0,.278,2.224l.278.688-.291.079a6.2,6.2,0,0,1-2.939-.688c-2.939-1.443-5.071-5.137-5.124-8.857a7.854,7.854,0,0,1,.768-3.839C34.5-325.521,36.9-326.7,39.426-325.945Zm-25.949,3.363a18.762,18.762,0,0,0,6.3,1.019,19.844,19.844,0,0,0,7.851-.98l1.523-.463,1.125.41c1.589.583,1.509.49,1.324,1.443a17.988,17.988,0,0,0,.066,4.329c.079.252,0,.291-.887.437a9.759,9.759,0,0,0-5.15,2.767l-.861.847-1.589.132a39.18,39.18,0,0,1-6.673-.146c-3.8-.477-7.162-1.642-9.016-3.1a3.211,3.211,0,0,1-1.4-2.595c.159-1.218,1.311-2.423,3.2-3.376a16.919,16.919,0,0,1,2.9-1.125C12.246-322.979,12.828-322.807,13.477-322.582Zm40.274,1.43c3.071,1.43,3.972,4.607,2.277,8.036a11.308,11.308,0,0,1-1.059,1.681l-.6.768-.821-.609c-3.469-2.555-8.182-2.952-10.922-.94a9.593,9.593,0,0,0-.953.794c-.3.384-.41.119-.41-1.006a8.091,8.091,0,0,1,2.648-5.931,9.614,9.614,0,0,1,7.56-3.244A4.246,4.246,0,0,1,53.751-321.152Zm-21.62,5.918a13.448,13.448,0,0,0,1.748,3.191,9.5,9.5,0,0,0,4.329,3.244,6.411,6.411,0,0,0,2.171.278H41.69l-.093.357a8.845,8.845,0,0,1-.53,1.284c-1.337,2.767-5.322,4.5-9.2,4.038a9.686,9.686,0,0,1-4.011-1.35,6.424,6.424,0,0,1-2.635-2.727,3.627,3.627,0,0,1-.437-2.224,3.715,3.715,0,0,1,.344-2.052,8.225,8.225,0,0,1,4.223-3.641C30.993-315.42,32.131-315.592,32.131-315.234Zm16.933,2.926a11.087,11.087,0,0,1,6.951,5.481,6.57,6.57,0,0,1,.847,3.773,5,5,0,0,1-4.091,4.687,9.5,9.5,0,0,1-5.56-.755c-1.417-.662-1.364-.569-1.112-1.946a10.46,10.46,0,0,0-1.059-7.083,8.7,8.7,0,0,0-2.158-2.251l-.437-.291.3-.331C43.954-312.308,46.747-312.878,49.064-312.308Zm-5.56,3.853a7.529,7.529,0,0,1,1.734,5.177,10.339,10.339,0,0,1-4.144,8.513c-3.032,2.118-6.567,1.311-8.169-1.867a9.227,9.227,0,0,1-.874-4.541l.093-.583,1.681-.066a8.26,8.26,0,0,0,2.939-.49c3.4-1.152,5.468-3.31,5.891-6.169.053-.331.146-.6.2-.6A2.605,2.605,0,0,1,43.5-308.456Z" transform="translate(0 -115.481)" fill="url(#linear-gradient)"/>
    <path id="Path_21" data-name="Path 21" d="M149.573-312.827a.487.487,0,0,0-.3.318c-.146.437.159.649.927.649s1.072-.212.927-.635C151.016-312.866,150.288-313.012,149.573-312.827Z" transform="translate(-129.119 -131.895)" fill="url(#linear-gradient)"/>
    <path id="Path_22" data-name="Path 22" d="M172.211-311.746a.516.516,0,0,0,.026.755,3.321,3.321,0,0,0,1.033.291c.45.066,1.377.252,2.052.41,1.006.238,1.244.252,1.417.119a.505.505,0,0,0,.053-.768,12.077,12.077,0,0,0-3.019-.768C172.264-311.944,172.409-311.944,172.211-311.746Z" transform="translate(-148.924 -132.778)" fill="url(#linear-gradient)"/>
    <path id="Path_23" data-name="Path 23" d="M258.088-276.587a6.136,6.136,0,0,0-2.846,3.892,11.541,11.541,0,0,0,.013,4.263c.41,1.681,1.748,3.985,2.3,3.985a.5.5,0,0,0,.4-.278c.132-.225.066-.4-.384-1.086a8.085,8.085,0,0,1-1.483-4.859c0-2.449.847-4.117,2.515-5.018.635-.331.808-.49.808-.741C259.412-276.957,258.948-277.024,258.088-276.587Z" transform="translate(-220.926 -163.157)" fill="url(#linear-gradient)"/>
    <path id="Path_24" data-name="Path 24" d="M327.432-240.886a9.993,9.993,0,0,0-5.719,3.416c-.635.781-.768,1.2-.477,1.5s.49.172,1.218-.755a7.85,7.85,0,0,1,6.381-3.191,4.156,4.156,0,0,1,3.244,1.258,3.391,3.391,0,0,0,.768.6.83.83,0,0,0,.543-.583,6.057,6.057,0,0,0-1.721-1.642A7.111,7.111,0,0,0,327.432-240.886Z" transform="translate(-278.222 -194.304)" fill="url(#linear-gradient)"/>
    <path id="Path_25" data-name="Path 25" d="M197.1-170.788a3.419,3.419,0,0,0,0,.927c.384,3.773,5.746,6.342,10.3,4.912,1.033-.318,1.337-.6,1.1-.993-.185-.278-.516-.265-1.642.04a10.46,10.46,0,0,1-4.1.079c-2.065-.5-3.813-1.8-4.342-3.23a4.684,4.684,0,0,1-.291-1.019c0-.543-.252-.927-.6-.927A.478.478,0,0,0,197.1-170.788Z" transform="translate(-170.627 -255.015)" fill="url(#linear-gradient)"/>
    <path id="Path_26" data-name="Path 26" d="M356.051-178.457c-.357.437-.119.781.741,1.086a8.022,8.022,0,0,1,3.31,2.105,6.468,6.468,0,0,1,1.589,2.118,3.92,3.92,0,0,1,.5,2.449c0,1.284-.026,1.443-.371,2.012-.424.728-.331,1.165.252,1.165.278,0,.4-.146.755-.9a3.76,3.76,0,0,0,.424-2.211,7.446,7.446,0,0,0-.225-2.052,9.653,9.653,0,0,0-5.2-5.468C356.7-178.616,356.249-178.7,356.051-178.457Z" transform="translate(-308.416 -248.432)" fill="url(#linear-gradient)"/>
    <path id="Path_27" data-name="Path 27" d="M273.073-130.841a4.579,4.579,0,0,0-.212,1.271,9.356,9.356,0,0,1-.966,3.6,8.039,8.039,0,0,1-3.151,3.257,3.775,3.775,0,0,1-2.185.384h-1.39l-.04.357c-.04.291.026.4.265.49a5.665,5.665,0,0,0,4.117-.477,9.592,9.592,0,0,0,1.695-1.364,8.972,8.972,0,0,0,2.635-6.289c0-1.046-.119-1.39-.477-1.39A.536.536,0,0,0,273.073-130.841Z" transform="translate(-229.662 -289.719)" fill="url(#linear-gradient)"/>
    <path id="Path_28" data-name="Path 28" d="M461.093-300.815c-.053.053-.093,3.654-.093,8,0,8.526-.013,8.433.649,8.076.278-.146.278-.172.252-8.116l-.04-7.97-.331-.04A.671.671,0,0,0,461.093-300.815Z" transform="translate(-399.61 -142.331)" fill="url(#linear-gradient)"/>
    <path id="Path_29" data-name="Path 29" d="M461.267-155.815a4.438,4.438,0,0,0-.119,1.734c.04,1.284.079,1.589.265,1.695a.309.309,0,0,0,.424-.027c.172-.146.212-.477.212-1.721,0-1.522-.093-1.867-.477-1.867A.479.479,0,0,0,461.267-155.815Z" transform="translate(-399.732 -268.029)" fill="url(#linear-gradient)"/>
    <path id="Path_30" data-name="Path 30" d="M27.053-141.868c-.212.212-.066.7.278.94,2.29,1.615,7.321,2.926,11.439,2.979,1.39.026,1.615,0,1.748-.2.278-.437-.053-.7-.927-.728a26.65,26.65,0,0,1-10.869-2.489C27.635-141.934,27.238-142.067,27.053-141.868Z" transform="translate(-23.029 -280.215)" fill="url(#linear-gradient)"/>
  </g>
</svg>
